<?xml version="1.0" standalone="no"?><!-- Generator: Gravit.io --><svg xmlns="http://www.w3.org/2000/svg" xmlns:xlink="http://www.w3.org/1999/xlink" style="isolation:isolate" viewBox="0 0 146.835 64.8" width="146.835" height="64.8"><defs><clipPath id="_clipPath_vy18NtlrnDo43AafrmER9S6KlomW17Su"><rect width="146.835" height="64.8"/></clipPath></defs><g clip-path="url(#_clipPath_vy18NtlrnDo43AafrmER9S6KlomW17Su)"><path d=" M 8.504 0 L 141.165 0 C 144.294 0 146.835 2.54 146.835 5.669 L 146.835 59.131 C 146.835 62.26 144.294 64.8 141.165 64.8 L 8.504 64.8 C 5.375 64.8 2.835 62.26 2.835 59.131 L 2.835 5.669 C 2.835 2.54 5.375 0 8.504 0 M 135.496 7.087 C 135.496 4.74 137.401 2.835 139.748 2.835 C 142.095 2.835 144 4.74 144 7.087 C 144 9.433 142.095 11.339 139.748 11.339 C 137.401 11.339 135.496 9.433 135.496 7.087 M 8.504 0 M 135.496 57.713 C 135.496 55.367 137.401 53.461 139.748 53.461 C 142.095 53.461 144 55.367 144 57.713 C 144 60.06 142.095 61.965 139.748 61.965 C 137.401 61.965 135.496 60.06 135.496 57.713 M 8.504 0 M 5.669 7.087 C 5.669 4.74 7.575 2.835 9.921 2.835 C 12.268 2.835 14.173 4.74 14.173 7.087 C 14.173 9.433 12.268 11.339 9.921 11.339 C 7.575 11.339 5.669 9.433 5.669 7.087 M 8.504 0 M 5.669 57.713 C 5.669 55.367 7.575 53.461 9.921 53.461 C 12.268 53.461 14.173 55.367 14.173 57.713 C 14.173 60.06 12.268 61.965 9.921 61.965 C 7.575 61.965 5.669 60.06 5.669 57.713 M 8.504 0 M 17.717 61.611 C 17.717 60.633 18.51 59.839 19.488 59.839 C 20.466 59.839 21.26 60.633 21.26 61.611 C 21.26 62.589 20.466 63.383 19.488 63.383 C 18.51 63.383 17.717 62.589 17.717 61.611 M 8.504 0 M 24.945 61.611 C 24.945 60.633 25.739 59.839 26.717 59.839 C 27.694 59.839 28.488 60.633 28.488 61.611 C 28.488 62.589 27.694 63.383 26.717 63.383 C 25.739 63.383 24.945 62.589 24.945 61.611 M 8.504 0 M 32.173 61.611 C 32.173 60.633 32.967 59.839 33.945 59.839 C 34.923 59.839 35.717 60.633 35.717 61.611 C 35.717 62.589 34.923 63.383 33.945 63.383 C 32.967 63.383 32.173 62.589 32.173 61.611 M 8.504 0 M 39.402 61.611 C 39.402 60.633 40.195 59.839 41.173 59.839 C 42.151 59.839 42.945 60.633 42.945 61.611 C 42.945 62.589 42.151 63.383 41.173 63.383 C 40.195 63.383 39.402 62.589 39.402 61.611 M 8.504 0 M 46.63 61.611 C 46.63 60.633 47.424 59.839 48.402 59.839 C 49.379 59.839 50.173 60.633 50.173 61.611 C 50.173 62.589 49.379 63.383 48.402 63.383 C 47.424 63.383 46.63 62.589 46.63 61.611 M 8.504 0 M 53.858 61.611 C 53.858 60.633 54.652 59.839 55.63 59.839 C 56.608 59.839 57.402 60.633 57.402 61.611 C 57.402 62.589 56.608 63.383 55.63 63.383 C 54.652 63.383 53.858 62.589 53.858 61.611 M 8.504 0 M 61.087 61.611 C 61.087 60.633 61.88 59.839 62.858 59.839 C 63.836 59.839 64.63 60.633 64.63 61.611 C 64.63 62.589 63.836 63.383 62.858 63.383 C 61.88 63.383 61.087 62.589 61.087 61.611 M 8.504 0 M 68.315 61.611 C 68.315 60.633 69.109 59.839 70.087 59.839 C 71.064 59.839 71.858 60.633 71.858 61.611 C 71.858 62.589 71.064 63.383 70.087 63.383 C 69.109 63.383 68.315 62.589 68.315 61.611 M 8.504 0 M 75.543 61.611 C 75.543 60.633 76.337 59.839 77.315 59.839 C 78.293 59.839 79.087 60.633 79.087 61.611 C 79.087 62.589 78.293 63.383 77.315 63.383 C 76.337 63.383 75.543 62.589 75.543 61.611 M 8.504 0 M 82.772 61.611 C 82.772 60.633 83.566 59.839 84.543 59.839 C 85.521 59.839 86.315 60.633 86.315 61.611 C 86.315 62.589 85.521 63.383 84.543 63.383 C 83.566 63.383 82.772 62.589 82.772 61.611 M 8.504 0 M 90 61.611 C 90 60.633 90.794 59.839 91.772 59.839 C 92.749 59.839 93.543 60.633 93.543 61.611 C 93.543 62.589 92.749 63.383 91.772 63.383 C 90.794 63.383 90 62.589 90 61.611 M 8.504 0 M 97.228 61.611 C 97.228 60.633 98.022 59.839 99 59.839 C 99.978 59.839 100.772 60.633 100.772 61.611 C 100.772 62.589 99.978 63.383 99 63.383 C 98.022 63.383 97.228 62.589 97.228 61.611 M 8.504 0 M 104.457 61.611 C 104.457 60.633 105.251 59.839 106.228 59.839 C 107.206 59.839 108 60.633 108 61.611 C 108 62.589 107.206 63.383 106.228 63.383 C 105.251 63.383 104.457 62.589 104.457 61.611 M 8.504 0 M 111.685 61.611 C 111.685 60.633 112.479 59.839 113.457 59.839 C 114.434 59.839 115.228 60.633 115.228 61.611 C 115.228 62.589 114.434 63.383 113.457 63.383 C 112.479 63.383 111.685 62.589 111.685 61.611 M 8.504 0 M 118.913 61.611 C 118.913 60.633 119.707 59.839 120.685 59.839 C 121.663 59.839 122.457 60.633 122.457 61.611 C 122.457 62.589 121.663 63.383 120.685 63.383 C 119.707 63.383 118.913 62.589 118.913 61.611 M 8.504 0 M 126.142 61.611 C 126.142 60.633 126.936 59.839 127.913 59.839 C 128.891 59.839 129.685 60.633 129.685 61.611 C 129.685 62.589 128.891 63.383 127.913 63.383 C 126.936 63.383 126.142 62.589 126.142 61.611 M 8.504 0 M 126.142 3.189 C 126.142 2.211 126.936 1.417 127.913 1.417 C 128.891 1.417 129.685 2.211 129.685 3.189 C 129.685 4.167 128.891 4.961 127.913 4.961 C 126.936 4.961 126.142 4.167 126.142 3.189 M 8.504 0 M 46.63 3.189 C 46.63 2.211 47.424 1.417 48.402 1.417 C 49.379 1.417 50.173 2.211 50.173 3.189 C 50.173 4.167 49.379 4.961 48.402 4.961 C 47.424 4.961 46.63 4.167 46.63 3.189 M 8.504 0 M 53.858 3.189 C 53.858 2.211 54.652 1.417 55.63 1.417 C 56.608 1.417 57.402 2.211 57.402 3.189 C 57.402 4.167 56.608 4.961 55.63 4.961 C 54.652 4.961 53.858 4.167 53.858 3.189 M 8.504 0 M 61.087 3.189 C 61.087 2.211 61.88 1.417 62.858 1.417 C 63.836 1.417 64.63 2.211 64.63 3.189 C 64.63 4.167 63.836 4.961 62.858 4.961 C 61.88 4.961 61.087 4.167 61.087 3.189 M 8.504 0 M 68.315 3.189 C 68.315 2.211 69.109 1.417 70.087 1.417 C 71.064 1.417 71.858 2.211 71.858 3.189 C 71.858 4.167 71.064 4.961 70.087 4.961 C 69.109 4.961 68.315 4.167 68.315 3.189 M 8.504 0 M 75.543 3.189 C 75.543 2.211 76.337 1.417 77.315 1.417 C 78.293 1.417 79.087 2.211 79.087 3.189 C 79.087 4.167 78.293 4.961 77.315 4.961 C 76.337 4.961 75.543 4.167 75.543 3.189 M 8.504 0 M 82.772 3.189 C 82.772 2.211 83.566 1.417 84.543 1.417 C 85.521 1.417 86.315 2.211 86.315 3.189 C 86.315 4.167 85.521 4.961 84.543 4.961 C 83.566 4.961 82.772 4.167 82.772 3.189 M 8.504 0 M 90 3.189 C 90 2.211 90.794 1.417 91.772 1.417 C 92.749 1.417 93.543 2.211 93.543 3.189 C 93.543 4.167 92.749 4.961 91.772 4.961 C 90.794 4.961 90 4.167 90 3.189 M 8.504 0 M 97.228 3.189 C 97.228 2.211 98.022 1.417 99 1.417 C 99.978 1.417 100.772 2.211 100.772 3.189 C 100.772 4.167 99.978 4.961 99 4.961 C 98.022 4.961 97.228 4.167 97.228 3.189 M 8.504 0 M 104.457 3.189 C 104.457 2.211 105.251 1.417 106.228 1.417 C 107.206 1.417 108 2.211 108 3.189 C 108 4.167 107.206 4.961 106.228 4.961 C 105.251 4.961 104.457 4.167 104.457 3.189 M 8.504 0 M 111.685 3.189 C 111.685 2.211 112.479 1.417 113.457 1.417 C 114.434 1.417 115.228 2.211 115.228 3.189 C 115.228 4.167 114.434 4.961 113.457 4.961 C 112.479 4.961 111.685 4.167 111.685 3.189 M 8.504 0 Z  M 118.913 3.189 C 118.913 2.211 119.707 1.417 120.685 1.417 C 121.663 1.417 122.457 2.211 122.457 3.189 C 122.457 4.167 121.663 4.961 120.685 4.961 C 119.707 4.961 118.913 4.167 118.913 3.189 Z " fill-rule="evenodd" fill="rgb(0,0,0)"/><rect x="0" y="21.061" width="17.008" height="22.677" transform="matrix(1,0,0,1,0,0)" fill="rgb(160,160,160)"/><g id="Top Holes"><path d=" M 4.252 57.713 C 4.252 54.584 6.792 52.044 9.921 52.044 C 13.05 52.044 15.591 54.584 15.591 57.713 C 15.591 60.842 13.05 63.383 9.921 63.383 C 6.792 63.383 4.252 60.842 4.252 57.713 Z  M 5.669 57.713 C 5.669 55.367 7.575 53.461 9.921 53.461 C 12.268 53.461 14.173 55.367 14.173 57.713 C 14.173 60.06 12.268 61.965 9.921 61.965 C 7.575 61.965 5.669 60.06 5.669 57.713 Z " fill-rule="evenodd" fill="rgb(154,145,108)"/><path d=" M 4.252 7.087 C 4.252 3.958 6.792 1.417 9.921 1.417 C 13.05 1.417 15.591 3.958 15.591 7.087 C 15.591 10.216 13.05 12.756 9.921 12.756 C 6.792 12.756 4.252 10.216 4.252 7.087 Z  M 5.669 7.087 C 5.669 4.74 7.575 2.835 9.921 2.835 C 12.268 2.835 14.173 4.74 14.173 7.087 C 14.173 9.433 12.268 11.339 9.921 11.339 C 7.575 11.339 5.669 9.433 5.669 7.087 Z " fill-rule="evenodd" fill="rgb(154,145,108)"/></g><g id="JST Battery port"><rect x="19.843" y="0" width="22.677" height="17.008" transform="matrix(1,0,0,1,0,0)" fill="rgb(230,200,150)"/><rect x="33.307" y="17.008" width="1.417" height="5.669" transform="matrix(1,0,0,1,0,0)" fill="rgb(140,140,140)"/><rect x="27.638" y="17.008" width="1.417" height="5.669" transform="matrix(1,0,0,1,0,0)" fill="rgb(140,140,140)"/></g><g id="RST BTN"><rect x="21.26" y="43.551" width="6.378" height="9.213" transform="matrix(1,0,0,1,0,0)" fill="rgb(160,160,160)"/><rect x="22.323" y="42.151" width="4.252" height="1.417" transform="matrix(1,0,0,1,0,0)" fill="rgb(140,140,140)"/><rect x="22.323" y="52.763" width="4.252" height="1.417" transform="matrix(1,0,0,1,0,0)" fill="rgb(140,140,140)"/><path d=" M 22.323 48.157 C 22.323 46.984 23.275 46.031 24.449 46.031 C 25.622 46.031 26.575 46.984 26.575 48.157 C 26.575 49.33 25.622 50.283 24.449 50.283 C 23.275 50.283 22.323 49.33 22.323 48.157 Z " fill="rgb(50,50,50)"/></g><g id="RST BTN"><rect x="137.622" y="16.99" width="6.378" height="9.213" transform="matrix(1,0,0,1,0,0)" fill="rgb(160,160,160)"/><rect x="138.685" y="15.591" width="4.252" height="1.417" transform="matrix(1,0,0,1,0,0)" fill="rgb(140,140,140)"/><rect x="138.685" y="26.203" width="4.252" height="1.417" transform="matrix(1,0,0,1,0,0)" fill="rgb(140,140,140)"/><path d=" M 138.685 21.596 C 138.685 20.423 139.638 19.47 140.811 19.47 C 141.984 19.47 142.937 20.423 142.937 21.596 C 142.937 22.77 141.984 23.722 140.811 23.722 C 139.638 23.722 138.685 22.77 138.685 21.596 Z " fill="rgb(50,50,50)"/></g><g id="RST BTN"><rect x="137.622" y="38.59" width="6.378" height="9.213" transform="matrix(1,0,0,1,0,0)" fill="rgb(160,160,160)"/><rect x="138.685" y="37.191" width="4.252" height="1.417" transform="matrix(1,0,0,1,0,0)" fill="rgb(140,140,140)"/><rect x="138.685" y="47.803" width="4.252" height="1.417" transform="matrix(1,0,0,1,0,0)" fill="rgb(140,140,140)"/><path d=" M 138.685 43.196 C 138.685 42.023 139.638 41.07 140.811 41.07 C 141.984 41.07 142.937 42.023 142.937 43.196 C 142.937 44.37 141.984 45.322 140.811 45.322 C 139.638 45.322 138.685 44.37 138.685 43.196 Z " fill="rgb(50,50,50)"/></g><g id="Cluster"><rect x="117.071" y="9.723" width="14.173" height="45.354" transform="matrix(1,0,0,1,0,0)" fill="rgb(50,50,50)"/><rect x="126.283" y="12.557" width="2.835" height="2.835" transform="matrix(1,0,0,1,0,0)" fill="rgb(0,0,0)"/><rect x="119.197" y="12.557" width="2.835" height="2.835" transform="matrix(1,0,0,1,0,0)" fill="rgb(0,0,0)"/><rect x="126.283" y="19.928" width="2.835" height="2.835" transform="matrix(1,0,0,1,0,0)" fill="rgb(0,0,0)"/><rect x="119.197" y="19.928" width="2.835" height="2.835" transform="matrix(1,0,0,1,0,0)" fill="rgb(0,0,0)"/><rect x="126.283" y="27.014" width="2.835" height="2.835" transform="matrix(1,0,0,1,0,0)" fill="rgb(0,0,0)"/><rect x="119.197" y="27.014" width="2.835" height="2.835" transform="matrix(1,0,0,1,0,0)" fill="rgb(0,0,0)"/><rect x="126.283" y="34.668" width="2.835" height="2.835" transform="matrix(1,0,0,1,0,0)" fill="rgb(0,0,0)"/><rect x="119.197" y="34.668" width="2.835" height="2.835" transform="matrix(1,0,0,1,0,0)" fill="rgb(0,0,0)"/><rect x="126.283" y="42.038" width="2.835" height="2.835" transform="matrix(1,0,0,1,0,0)" fill="rgb(0,0,0)"/><rect x="119.197" y="42.038" width="2.835" height="2.835" transform="matrix(1,0,0,1,0,0)" fill="rgb(0,0,0)"/><rect x="126.283" y="49.408" width="2.835" height="2.835" transform="matrix(1,0,0,1,0,0)" fill="rgb(0,0,0)"/><rect x="119.197" y="49.408" width="2.835" height="2.835" transform="matrix(1,0,0,1,0,0)" fill="rgb(0,0,0)"/></g><g id="Cluster"><rect x="95.811" y="9.723" width="14.173" height="45.354" transform="matrix(1,0,0,1,0,0)" fill="rgb(50,50,50)"/><rect x="105.024" y="12.557" width="2.835" height="2.835" transform="matrix(1,0,0,1,0,0)" fill="rgb(0,0,0)"/><rect x="97.937" y="12.557" width="2.835" height="2.835" transform="matrix(1,0,0,1,0,0)" fill="rgb(0,0,0)"/><rect x="105.024" y="19.928" width="2.835" height="2.835" transform="matrix(1,0,0,1,0,0)" fill="rgb(0,0,0)"/><rect x="97.937" y="19.928" width="2.835" height="2.835" transform="matrix(1,0,0,1,0,0)" fill="rgb(0,0,0)"/><rect x="105.024" y="27.014" width="2.835" height="2.835" transform="matrix(1,0,0,1,0,0)" fill="rgb(0,0,0)"/><rect x="97.937" y="27.014" width="2.835" height="2.835" transform="matrix(1,0,0,1,0,0)" fill="rgb(0,0,0)"/><rect x="105.024" y="34.668" width="2.835" height="2.835" transform="matrix(1,0,0,1,0,0)" fill="rgb(0,0,0)"/><rect x="97.937" y="34.668" width="2.835" height="2.835" transform="matrix(1,0,0,1,0,0)" fill="rgb(0,0,0)"/><rect x="105.024" y="42.038" width="2.835" height="2.835" transform="matrix(1,0,0,1,0,0)" fill="rgb(0,0,0)"/><rect x="97.937" y="42.038" width="2.835" height="2.835" transform="matrix(1,0,0,1,0,0)" fill="rgb(0,0,0)"/><rect x="105.024" y="49.408" width="2.835" height="2.835" transform="matrix(1,0,0,1,0,0)" fill="rgb(0,0,0)"/><rect x="97.937" y="49.408" width="2.835" height="2.835" transform="matrix(1,0,0,1,0,0)" fill="rgb(0,0,0)"/></g><path d=" M 17.008 61.611 C 17.008 60.242 18.119 59.131 19.488 59.131 C 20.857 59.131 21.969 60.242 21.969 61.611 C 21.969 62.98 20.857 64.091 19.488 64.091 C 18.119 64.091 17.008 62.98 17.008 61.611 Z  M 17.717 61.611 C 17.717 60.633 18.51 59.839 19.488 59.839 C 20.466 59.839 21.26 60.633 21.26 61.611 C 21.26 62.589 20.466 63.383 19.488 63.383 C 18.51 63.383 17.717 62.589 17.717 61.611 Z " fill-rule="evenodd" fill="rgb(154,145,108)"/><path d=" M 17.008 61.611 C 17.008 60.242 18.119 59.131 19.488 59.131 C 20.857 59.131 21.969 60.242 21.969 61.611 C 21.969 62.98 20.857 64.091 19.488 64.091 C 18.119 64.091 17.008 62.98 17.008 61.611 Z  M 17.717 61.611 C 17.717 60.633 18.51 59.839 19.488 59.839 C 20.466 59.839 21.26 60.633 21.26 61.611 C 21.26 62.589 20.466 63.383 19.488 63.383 C 18.51 63.383 17.717 62.589 17.717 61.611 Z " fill-rule="evenodd" fill="rgb(154,145,108)"/><path d=" M 24.236 61.611 C 24.236 60.242 25.348 59.131 26.717 59.131 C 28.085 59.131 29.197 60.242 29.197 61.611 C 29.197 62.98 28.085 64.091 26.717 64.091 C 25.348 64.091 24.236 62.98 24.236 61.611 Z  M 24.945 61.611 C 24.945 60.633 25.739 59.839 26.717 59.839 C 27.694 59.839 28.488 60.633 28.488 61.611 C 28.488 62.589 27.694 63.383 26.717 63.383 C 25.739 63.383 24.945 62.589 24.945 61.611 Z " fill-rule="evenodd" fill="rgb(154,145,108)"/><path d=" M 31.465 61.611 C 31.465 60.242 32.576 59.131 33.945 59.131 C 35.314 59.131 36.425 60.242 36.425 61.611 C 36.425 62.98 35.314 64.091 33.945 64.091 C 32.576 64.091 31.465 62.98 31.465 61.611 Z  M 32.173 61.611 C 32.173 60.633 32.967 59.839 33.945 59.839 C 34.923 59.839 35.717 60.633 35.717 61.611 C 35.717 62.589 34.923 63.383 33.945 63.383 C 32.967 63.383 32.173 62.589 32.173 61.611 Z " fill-rule="evenodd" fill="rgb(154,145,108)"/><path d=" M 38.693 61.611 C 38.693 60.242 39.804 59.131 41.173 59.131 C 42.542 59.131 43.654 60.242 43.654 61.611 C 43.654 62.98 42.542 64.091 41.173 64.091 C 39.804 64.091 38.693 62.98 38.693 61.611 Z  M 39.402 61.611 C 39.402 60.633 40.195 59.839 41.173 59.839 C 42.151 59.839 42.945 60.633 42.945 61.611 C 42.945 62.589 42.151 63.383 41.173 63.383 C 40.195 63.383 39.402 62.589 39.402 61.611 Z " fill-rule="evenodd" fill="rgb(154,145,108)"/><path d=" M 45.921 61.611 C 45.921 60.242 47.033 59.131 48.402 59.131 C 49.77 59.131 50.882 60.242 50.882 61.611 C 50.882 62.98 49.77 64.091 48.402 64.091 C 47.033 64.091 45.921 62.98 45.921 61.611 Z  M 46.63 61.611 C 46.63 60.633 47.424 59.839 48.402 59.839 C 49.379 59.839 50.173 60.633 50.173 61.611 C 50.173 62.589 49.379 63.383 48.402 63.383 C 47.424 63.383 46.63 62.589 46.63 61.611 Z " fill-rule="evenodd" fill="rgb(154,145,108)"/><path d=" M 45.921 61.611 C 45.921 60.242 47.033 59.131 48.402 59.131 C 49.77 59.131 50.882 60.242 50.882 61.611 C 50.882 62.98 49.77 64.091 48.402 64.091 C 47.033 64.091 45.921 62.98 45.921 61.611 Z  M 46.63 61.611 C 46.63 60.633 47.424 59.839 48.402 59.839 C 49.379 59.839 50.173 60.633 50.173 61.611 C 50.173 62.589 49.379 63.383 48.402 63.383 C 47.424 63.383 46.63 62.589 46.63 61.611 Z " fill-rule="evenodd" fill="rgb(154,145,108)"/><path d=" M 53.15 61.611 C 53.15 60.242 54.261 59.131 55.63 59.131 C 56.999 59.131 58.11 60.242 58.11 61.611 C 58.11 62.98 56.999 64.091 55.63 64.091 C 54.261 64.091 53.15 62.98 53.15 61.611 Z  M 53.858 61.611 C 53.858 60.633 54.652 59.839 55.63 59.839 C 56.608 59.839 57.402 60.633 57.402 61.611 C 57.402 62.589 56.608 63.383 55.63 63.383 C 54.652 63.383 53.858 62.589 53.858 61.611 Z " fill-rule="evenodd" fill="rgb(154,145,108)"/><path d=" M 60.378 61.611 C 60.378 60.242 61.489 59.131 62.858 59.131 C 64.227 59.131 65.339 60.242 65.339 61.611 C 65.339 62.98 64.227 64.091 62.858 64.091 C 61.489 64.091 60.378 62.98 60.378 61.611 Z  M 61.087 61.611 C 61.087 60.633 61.88 59.839 62.858 59.839 C 63.836 59.839 64.63 60.633 64.63 61.611 C 64.63 62.589 63.836 63.383 62.858 63.383 C 61.88 63.383 61.087 62.589 61.087 61.611 Z " fill-rule="evenodd" fill="rgb(154,145,108)"/><path d=" M 67.606 61.611 C 67.606 60.242 68.718 59.131 70.087 59.131 C 71.456 59.131 72.567 60.242 72.567 61.611 C 72.567 62.98 71.456 64.091 70.087 64.091 C 68.718 64.091 67.606 62.98 67.606 61.611 Z  M 68.315 61.611 C 68.315 60.633 69.109 59.839 70.087 59.839 C 71.064 59.839 71.858 60.633 71.858 61.611 C 71.858 62.589 71.064 63.383 70.087 63.383 C 69.109 63.383 68.315 62.589 68.315 61.611 Z " fill-rule="evenodd" fill="rgb(154,145,108)"/><path d=" M 74.835 61.611 C 74.835 60.242 75.946 59.131 77.315 59.131 C 78.684 59.131 79.795 60.242 79.795 61.611 C 79.795 62.98 78.684 64.091 77.315 64.091 C 75.946 64.091 74.835 62.98 74.835 61.611 Z  M 75.543 61.611 C 75.543 60.633 76.337 59.839 77.315 59.839 C 78.293 59.839 79.087 60.633 79.087 61.611 C 79.087 62.589 78.293 63.383 77.315 63.383 C 76.337 63.383 75.543 62.589 75.543 61.611 Z " fill-rule="evenodd" fill="rgb(154,145,108)"/><path d=" M 74.835 61.611 C 74.835 60.242 75.946 59.131 77.315 59.131 C 78.684 59.131 79.795 60.242 79.795 61.611 C 79.795 62.98 78.684 64.091 77.315 64.091 C 75.946 64.091 74.835 62.98 74.835 61.611 Z  M 75.543 61.611 C 75.543 60.633 76.337 59.839 77.315 59.839 C 78.293 59.839 79.087 60.633 79.087 61.611 C 79.087 62.589 78.293 63.383 77.315 63.383 C 76.337 63.383 75.543 62.589 75.543 61.611 Z " fill-rule="evenodd" fill="rgb(154,145,108)"/><path d=" M 82.063 61.611 C 82.063 60.242 83.174 59.131 84.543 59.131 C 85.912 59.131 87.024 60.242 87.024 61.611 C 87.024 62.98 85.912 64.091 84.543 64.091 C 83.174 64.091 82.063 62.98 82.063 61.611 Z  M 82.772 61.611 C 82.772 60.633 83.566 59.839 84.543 59.839 C 85.521 59.839 86.315 60.633 86.315 61.611 C 86.315 62.589 85.521 63.383 84.543 63.383 C 83.566 63.383 82.772 62.589 82.772 61.611 Z " fill-rule="evenodd" fill="rgb(154,145,108)"/><path d=" M 89.291 61.611 C 89.291 60.242 90.403 59.131 91.772 59.131 C 93.141 59.131 94.252 60.242 94.252 61.611 C 94.252 62.98 93.141 64.091 91.772 64.091 C 90.403 64.091 89.291 62.98 89.291 61.611 Z  M 90 61.611 C 90 60.633 90.794 59.839 91.772 59.839 C 92.749 59.839 93.543 60.633 93.543 61.611 C 93.543 62.589 92.749 63.383 91.772 63.383 C 90.794 63.383 90 62.589 90 61.611 Z " fill-rule="evenodd" fill="rgb(154,145,108)"/><path d=" M 96.52 61.611 C 96.52 60.242 97.631 59.131 99 59.131 C 100.369 59.131 101.48 60.242 101.48 61.611 C 101.48 62.98 100.369 64.091 99 64.091 C 97.631 64.091 96.52 62.98 96.52 61.611 Z  M 97.228 61.611 C 97.228 60.633 98.022 59.839 99 59.839 C 99.978 59.839 100.772 60.633 100.772 61.611 C 100.772 62.589 99.978 63.383 99 63.383 C 98.022 63.383 97.228 62.589 97.228 61.611 Z " fill-rule="evenodd" fill="rgb(154,145,108)"/><path d=" M 103.748 61.611 C 103.748 60.242 104.859 59.131 106.228 59.131 C 107.597 59.131 108.709 60.242 108.709 61.611 C 108.709 62.98 107.597 64.091 106.228 64.091 C 104.859 64.091 103.748 62.98 103.748 61.611 Z  M 104.457 61.611 C 104.457 60.633 105.251 59.839 106.228 59.839 C 107.206 59.839 108 60.633 108 61.611 C 108 62.589 107.206 63.383 106.228 63.383 C 105.251 63.383 104.457 62.589 104.457 61.611 Z " fill-rule="evenodd" fill="rgb(154,145,108)"/><path d=" M 103.748 61.611 C 103.748 60.242 104.859 59.131 106.228 59.131 C 107.597 59.131 108.709 60.242 108.709 61.611 C 108.709 62.98 107.597 64.091 106.228 64.091 C 104.859 64.091 103.748 62.98 103.748 61.611 Z  M 104.457 61.611 C 104.457 60.633 105.251 59.839 106.228 59.839 C 107.206 59.839 108 60.633 108 61.611 C 108 62.589 107.206 63.383 106.228 63.383 C 105.251 63.383 104.457 62.589 104.457 61.611 Z " fill-rule="evenodd" fill="rgb(154,145,108)"/><path d=" M 110.976 61.611 C 110.976 60.242 112.088 59.131 113.457 59.131 C 114.826 59.131 115.937 60.242 115.937 61.611 C 115.937 62.98 114.826 64.091 113.457 64.091 C 112.088 64.091 110.976 62.98 110.976 61.611 Z  M 111.685 61.611 C 111.685 60.633 112.479 59.839 113.457 59.839 C 114.434 59.839 115.228 60.633 115.228 61.611 C 115.228 62.589 114.434 63.383 113.457 63.383 C 112.479 63.383 111.685 62.589 111.685 61.611 Z " fill-rule="evenodd" fill="rgb(154,145,108)"/><path d=" M 118.205 61.611 C 118.205 60.242 119.316 59.131 120.685 59.131 C 122.054 59.131 123.165 60.242 123.165 61.611 C 123.165 62.98 122.054 64.091 120.685 64.091 C 119.316 64.091 118.205 62.98 118.205 61.611 Z  M 118.913 61.611 C 118.913 60.633 119.707 59.839 120.685 59.839 C 121.663 59.839 122.457 60.633 122.457 61.611 C 122.457 62.589 121.663 63.383 120.685 63.383 C 119.707 63.383 118.913 62.589 118.913 61.611 Z " fill-rule="evenodd" fill="rgb(154,145,108)"/><path d=" M 125.433 61.611 C 125.433 60.242 126.544 59.131 127.913 59.131 C 129.282 59.131 130.394 60.242 130.394 61.611 C 130.394 62.98 129.282 64.091 127.913 64.091 C 126.544 64.091 125.433 62.98 125.433 61.611 Z  M 126.142 61.611 C 126.142 60.633 126.936 59.839 127.913 59.839 C 128.891 59.839 129.685 60.633 129.685 61.611 C 129.685 62.589 128.891 63.383 127.913 63.383 C 126.936 63.383 126.142 62.589 126.142 61.611 Z " fill-rule="evenodd" fill="rgb(154,145,108)"/><path d=" M 45.921 3.189 C 45.921 1.82 47.033 0.709 48.402 0.709 C 49.77 0.709 50.882 1.82 50.882 3.189 C 50.882 4.558 49.77 5.669 48.402 5.669 C 47.033 5.669 45.921 4.558 45.921 3.189 Z  M 46.63 3.189 C 46.63 2.211 47.424 1.417 48.402 1.417 C 49.379 1.417 50.173 2.211 50.173 3.189 C 50.173 4.167 49.379 4.961 48.402 4.961 C 47.424 4.961 46.63 4.167 46.63 3.189 Z " fill-rule="evenodd" fill="rgb(154,145,108)"/><path d=" M 53.15 3.189 C 53.15 1.82 54.261 0.709 55.63 0.709 C 56.999 0.709 58.11 1.82 58.11 3.189 C 58.11 4.558 56.999 5.669 55.63 5.669 C 54.261 5.669 53.15 4.558 53.15 3.189 Z  M 53.858 3.189 C 53.858 2.211 54.652 1.417 55.63 1.417 C 56.608 1.417 57.402 2.211 57.402 3.189 C 57.402 4.167 56.608 4.961 55.63 4.961 C 54.652 4.961 53.858 4.167 53.858 3.189 Z " fill-rule="evenodd" fill="rgb(154,145,108)"/><path d=" M 60.378 3.189 C 60.378 1.82 61.489 0.709 62.858 0.709 C 64.227 0.709 65.339 1.82 65.339 3.189 C 65.339 4.558 64.227 5.669 62.858 5.669 C 61.489 5.669 60.378 4.558 60.378 3.189 Z  M 61.087 3.189 C 61.087 2.211 61.88 1.417 62.858 1.417 C 63.836 1.417 64.63 2.211 64.63 3.189 C 64.63 4.167 63.836 4.961 62.858 4.961 C 61.88 4.961 61.087 4.167 61.087 3.189 Z " fill-rule="evenodd" fill="rgb(154,145,108)"/><path d=" M 67.606 3.189 C 67.606 1.82 68.718 0.709 70.087 0.709 C 71.456 0.709 72.567 1.82 72.567 3.189 C 72.567 4.558 71.456 5.669 70.087 5.669 C 68.718 5.669 67.606 4.558 67.606 3.189 Z  M 68.315 3.189 C 68.315 2.211 69.109 1.417 70.087 1.417 C 71.064 1.417 71.858 2.211 71.858 3.189 C 71.858 4.167 71.064 4.961 70.087 4.961 C 69.109 4.961 68.315 4.167 68.315 3.189 Z " fill-rule="evenodd" fill="rgb(154,145,108)"/><path d=" M 74.835 3.189 C 74.835 1.82 75.946 0.709 77.315 0.709 C 78.684 0.709 79.795 1.82 79.795 3.189 C 79.795 4.558 78.684 5.669 77.315 5.669 C 75.946 5.669 74.835 4.558 74.835 3.189 Z  M 75.543 3.189 C 75.543 2.211 76.337 1.417 77.315 1.417 C 78.293 1.417 79.087 2.211 79.087 3.189 C 79.087 4.167 78.293 4.961 77.315 4.961 C 76.337 4.961 75.543 4.167 75.543 3.189 Z " fill-rule="evenodd" fill="rgb(154,145,108)"/><path d=" M 74.835 3.189 C 74.835 1.82 75.946 0.709 77.315 0.709 C 78.684 0.709 79.795 1.82 79.795 3.189 C 79.795 4.558 78.684 5.669 77.315 5.669 C 75.946 5.669 74.835 4.558 74.835 3.189 Z  M 75.543 3.189 C 75.543 2.211 76.337 1.417 77.315 1.417 C 78.293 1.417 79.087 2.211 79.087 3.189 C 79.087 4.167 78.293 4.961 77.315 4.961 C 76.337 4.961 75.543 4.167 75.543 3.189 Z " fill-rule="evenodd" fill="rgb(154,145,108)"/><path d=" M 82.063 3.189 C 82.063 1.82 83.174 0.709 84.543 0.709 C 85.912 0.709 87.024 1.82 87.024 3.189 C 87.024 4.558 85.912 5.669 84.543 5.669 C 83.174 5.669 82.063 4.558 82.063 3.189 Z  M 82.772 3.189 C 82.772 2.211 83.566 1.417 84.543 1.417 C 85.521 1.417 86.315 2.211 86.315 3.189 C 86.315 4.167 85.521 4.961 84.543 4.961 C 83.566 4.961 82.772 4.167 82.772 3.189 Z " fill-rule="evenodd" fill="rgb(154,145,108)"/><path d=" M 89.291 3.189 C 89.291 1.82 90.403 0.709 91.772 0.709 C 93.141 0.709 94.252 1.82 94.252 3.189 C 94.252 4.558 93.141 5.669 91.772 5.669 C 90.403 5.669 89.291 4.558 89.291 3.189 Z  M 90 3.189 C 90 2.211 90.794 1.417 91.772 1.417 C 92.749 1.417 93.543 2.211 93.543 3.189 C 93.543 4.167 92.749 4.961 91.772 4.961 C 90.794 4.961 90 4.167 90 3.189 Z " fill-rule="evenodd" fill="rgb(154,145,108)"/><path d=" M 96.52 3.189 C 96.52 1.82 97.631 0.709 99 0.709 C 100.369 0.709 101.48 1.82 101.48 3.189 C 101.48 4.558 100.369 5.669 99 5.669 C 97.631 5.669 96.52 4.558 96.52 3.189 Z  M 97.228 3.189 C 97.228 2.211 98.022 1.417 99 1.417 C 99.978 1.417 100.772 2.211 100.772 3.189 C 100.772 4.167 99.978 4.961 99 4.961 C 98.022 4.961 97.228 4.167 97.228 3.189 Z " fill-rule="evenodd" fill="rgb(154,145,108)"/><path d=" M 103.748 3.189 C 103.748 1.82 104.859 0.709 106.228 0.709 C 107.597 0.709 108.709 1.82 108.709 3.189 C 108.709 4.558 107.597 5.669 106.228 5.669 C 104.859 5.669 103.748 4.558 103.748 3.189 Z  M 104.457 3.189 C 104.457 2.211 105.251 1.417 106.228 1.417 C 107.206 1.417 108 2.211 108 3.189 C 108 4.167 107.206 4.961 106.228 4.961 C 105.251 4.961 104.457 4.167 104.457 3.189 Z " fill-rule="evenodd" fill="rgb(154,145,108)"/><path d=" M 103.748 3.189 C 103.748 1.82 104.859 0.709 106.228 0.709 C 107.597 0.709 108.709 1.82 108.709 3.189 C 108.709 4.558 107.597 5.669 106.228 5.669 C 104.859 5.669 103.748 4.558 103.748 3.189 Z  M 104.457 3.189 C 104.457 2.211 105.251 1.417 106.228 1.417 C 107.206 1.417 108 2.211 108 3.189 C 108 4.167 107.206 4.961 106.228 4.961 C 105.251 4.961 104.457 4.167 104.457 3.189 Z " fill-rule="evenodd" fill="rgb(154,145,108)"/><path d=" M 110.976 3.189 C 110.976 1.82 112.088 0.709 113.457 0.709 C 114.826 0.709 115.937 1.82 115.937 3.189 C 115.937 4.558 114.826 5.669 113.457 5.669 C 112.088 5.669 110.976 4.558 110.976 3.189 Z  M 111.685 3.189 C 111.685 2.211 112.479 1.417 113.457 1.417 C 114.434 1.417 115.228 2.211 115.228 3.189 C 115.228 4.167 114.434 4.961 113.457 4.961 C 112.479 4.961 111.685 4.167 111.685 3.189 Z " fill-rule="evenodd" fill="rgb(154,145,108)"/><path d=" M 118.205 3.189 C 118.205 1.82 119.316 0.709 120.685 0.709 C 122.054 0.709 123.165 1.82 123.165 3.189 C 123.165 4.558 122.054 5.669 120.685 5.669 C 119.316 5.669 118.205 4.558 118.205 3.189 Z  M 118.913 3.189 C 118.913 2.211 119.707 1.417 120.685 1.417 C 121.663 1.417 122.457 2.211 122.457 3.189 C 122.457 4.167 121.663 4.961 120.685 4.961 C 119.707 4.961 118.913 4.167 118.913 3.189 Z " fill-rule="evenodd" fill="rgb(154,145,108)"/><path d=" M 125.433 3.189 C 125.433 1.82 126.544 0.709 127.913 0.709 C 129.282 0.709 130.394 1.82 130.394 3.189 C 130.394 4.558 129.282 5.669 127.913 5.669 C 126.544 5.669 125.433 4.558 125.433 3.189 Z  M 126.142 3.189 C 126.142 2.211 126.936 1.417 127.913 1.417 C 128.891 1.417 129.685 2.211 129.685 3.189 C 129.685 4.167 128.891 4.961 127.913 4.961 C 126.936 4.961 126.142 4.167 126.142 3.189 Z " fill-rule="evenodd" fill="rgb(154,145,108)"/><path d=" M 87.696 53.2 L 86.816 52.59 L 86.816 51.965 L 90.456 51.965 L 90.456 51.965 Q 90.706 51.965 90.706 52.215 L 90.706 52.215 L 90.706 52.215 Q 90.706 52.465 90.457 52.465 L 90.457 52.465 L 87.514 52.465 L 88.222 52.95 L 88.3 52.95 L 88.3 52.95 Q 88.431 52.95 88.511 53.005 L 88.511 53.005 L 88.511 53.005 Q 88.591 53.06 88.591 53.2 L 88.591 53.2 L 88.591 53.2 Q 88.591 53.325 88.504 53.387 L 88.504 53.387 L 88.504 53.387 Q 88.417 53.45 88.293 53.45 L 88.293 53.45 L 88.213 53.45 L 87.511 53.925 L 90.457 53.935 L 90.457 53.935 Q 90.706 53.935 90.706 54.185 L 90.706 54.185 L 90.706 54.185 Q 90.706 54.435 90.456 54.435 L 90.456 54.435 L 86.816 54.435 L 86.816 53.81 L 87.696 53.2 L 87.696 53.2 Z  M 90.456 50.835 L 87.071 49.855 L 87.071 49.855 Q 86.941 49.815 86.879 49.765 L 86.879 49.765 L 86.879 49.765 Q 86.816 49.715 86.816 49.6 L 86.816 49.6 L 86.816 49.6 Q 86.816 49.486 86.881 49.431 L 86.881 49.431 L 86.881 49.431 Q 86.946 49.376 87.071 49.341 L 87.071 49.341 L 90.456 48.376 L 90.456 48.376 Q 90.546 48.351 90.626 48.431 L 90.626 48.431 L 90.626 48.431 Q 90.706 48.511 90.706 48.616 L 90.706 48.616 L 90.706 48.616 Q 90.706 48.721 90.633 48.788 L 90.633 48.788 L 90.633 48.788 Q 90.56 48.856 90.455 48.886 L 90.455 48.886 L 89.856 49.071 L 89.856 50.136 L 90.457 50.325 L 90.457 50.325 Q 90.562 50.355 90.634 50.423 L 90.634 50.423 L 90.634 50.423 Q 90.706 50.49 90.706 50.595 L 90.706 50.595 L 90.706 50.595 Q 90.706 50.7 90.626 50.78 L 90.626 50.78 L 90.626 50.78 Q 90.546 50.86 90.456 50.835 L 90.456 50.835 L 90.456 50.835 Z  M 89.356 49.209 L 88.004 49.594 L 89.356 49.991 L 89.356 49.209 L 89.356 49.209 Z  M 90.291 47.175 L 88.761 46.287 L 87.231 47.175 L 87.231 47.175 Q 87.191 47.2 87.154 47.217 L 87.154 47.217 L 87.154 47.217 Q 87.116 47.235 87.051 47.235 L 87.051 47.235 L 87.051 47.235 Q 86.956 47.235 86.886 47.16 L 86.886 47.16 L 86.886 47.16 Q 86.816 47.085 86.816 46.99 L 86.816 46.99 L 86.816 46.99 Q 86.816 46.879 86.867 46.829 L 86.867 46.829 L 86.867 46.829 Q 86.918 46.779 87.054 46.699 L 87.054 46.699 L 88.253 45.998 L 87.061 45.3 L 87.061 45.3 Q 86.996 45.265 86.906 45.205 L 86.906 45.205 L 86.906 45.205 Q 86.816 45.145 86.816 45.01 L 86.816 45.01 L 86.816 45.01 Q 86.816 44.91 86.885 44.837 L 86.885 44.837 L 86.885 44.837 Q 86.954 44.765 87.056 44.765 L 87.056 44.765 L 87.056 44.765 Q 87.112 44.765 87.15 44.78 L 87.15 44.78 L 87.15 44.78 Q 87.188 44.795 87.239 44.825 L 87.239 44.825 L 88.766 45.712 L 90.294 44.825 L 90.294 44.825 Q 90.333 44.8 90.371 44.782 L 90.371 44.782 L 90.371 44.782 Q 90.408 44.765 90.473 44.765 L 90.473 44.765 L 90.473 44.765 Q 90.567 44.765 90.637 44.84 L 90.637 44.84 L 90.637 44.84 Q 90.706 44.915 90.706 45.01 L 90.706 45.01 L 90.706 45.01 Q 90.706 45.12 90.654 45.17 L 90.654 45.17 L 90.654 45.17 Q 90.601 45.22 90.461 45.3 L 90.461 45.3 L 89.264 46.001 L 90.459 46.7 L 90.459 46.7 Q 90.525 46.74 90.59 46.775 L 90.59 46.775 L 90.59 46.775 Q 90.706 46.855 90.706 46.99 L 90.706 46.99 L 90.706 46.99 Q 90.706 47.09 90.639 47.163 L 90.639 47.163 L 90.639 47.163 Q 90.571 47.235 90.471 47.235 L 90.471 47.235 L 90.471 47.235 Q 90.416 47.235 90.379 47.22 L 90.379 47.22 L 90.379 47.22 Q 90.341 47.205 90.291 47.175 L 90.291 47.175 L 90.291 47.175 Z  M 87.316 41.665 L 87.316 43.385 L 87.316 43.385 Q 87.316 43.495 87.256 43.565 L 87.256 43.565 L 87.256 43.565 Q 87.196 43.635 87.066 43.635 L 87.066 43.635 L 87.066 43.635 Q 86.941 43.635 86.879 43.562 L 86.879 43.562 L 86.879 43.562 Q 86.816 43.49 86.816 43.385 L 86.816 43.385 L 86.816 41.665 L 86.816 41.665 Q 86.816 41.45 86.959 41.307 L 86.959 41.307 L 86.959 41.307 Q 87.101 41.165 87.316 41.165 L 87.316 41.165 L 88.276 41.165 L 88.276 41.165 Q 88.446 41.165 88.551 41.202 L 88.551 41.202 L 88.551 41.202 Q 88.656 41.24 88.761 41.36 L 88.761 41.36 L 88.761 41.36 Q 88.861 41.25 88.974 41.207 L 88.974 41.207 L 88.974 41.207 Q 89.086 41.165 89.246 41.165 L 89.246 41.165 L 90.206 41.165 L 90.206 41.165 Q 90.421 41.165 90.564 41.307 L 90.564 41.307 L 90.564 41.307 Q 90.706 41.45 90.706 41.665 L 90.706 41.665 L 90.706 43.385 L 90.706 43.385 Q 90.706 43.495 90.646 43.565 L 90.646 43.565 L 90.646 43.565 Q 90.586 43.635 90.456 43.635 L 90.456 43.635 L 90.456 43.635 Q 90.331 43.635 90.269 43.562 L 90.269 43.562 L 90.269 43.562 Q 90.206 43.49 90.206 43.385 L 90.206 43.385 L 90.206 41.665 L 89.376 41.665 L 89.376 41.665 Q 89.181 41.665 89.096 41.732 L 89.096 41.732 L 89.096 41.732 Q 89.011 41.8 89.011 41.915 L 89.011 41.915 L 89.011 42.895 L 89.011 42.895 Q 89.011 43.005 88.951 43.075 L 88.951 43.075 L 88.951 43.075 Q 88.891 43.145 88.761 43.145 L 88.761 43.145 L 88.761 43.145 Q 88.636 43.145 88.574 43.072 L 88.574 43.072 L 88.574 43.072 Q 88.511 43 88.511 42.895 L 88.511 42.895 L 88.511 41.915 L 88.511 41.915 Q 88.511 41.8 88.426 41.732 L 88.426 41.732 L 88.426 41.732 Q 88.341 41.665 88.146 41.665 L 88.146 41.665 L 87.316 41.665 L 87.316 41.665 Z  M 89.011 39.535 L 90.206 39.535 L 90.206 37.815 L 90.206 37.815 Q 90.206 37.705 90.266 37.635 L 90.266 37.635 L 90.266 37.635 Q 90.326 37.565 90.456 37.565 L 90.456 37.565 L 90.456 37.565 Q 90.581 37.565 90.644 37.637 L 90.644 37.637 L 90.644 37.637 Q 90.706 37.71 90.706 37.815 L 90.706 37.815 L 90.706 40.035 L 89.076 40.035 L 89.076 40.035 Q 88.511 40.035 88.511 39.47 L 88.511 39.47 L 88.511 38.065 L 87.316 38.065 L 87.316 39.785 L 87.316 39.785 Q 87.316 39.895 87.256 39.965 L 87.256 39.965 L 87.256 39.965 Q 87.196 40.035 87.066 40.035 L 87.066 40.035 L 87.066 40.035 Q 86.941 40.035 86.879 39.962 L 86.879 39.962 L 86.879 39.962 Q 86.816 39.89 86.816 39.785 L 86.816 39.785 L 86.816 38.125 L 86.816 38.125 Q 86.816 37.99 86.844 37.9 L 86.844 37.9 L 86.844 37.9 Q 86.871 37.81 86.959 37.717 L 86.959 37.717 L 86.959 37.717 Q 87.046 37.625 87.144 37.595 L 87.144 37.595 L 87.144 37.595 Q 87.241 37.565 87.401 37.565 L 87.401 37.565 L 88.426 37.565 L 88.426 37.565 Q 88.581 37.565 88.681 37.595 L 88.681 37.595 L 88.681 37.595 Q 88.781 37.625 88.866 37.715 L 88.866 37.715 L 88.866 37.715 Q 88.951 37.805 88.981 37.902 L 88.981 37.902 L 88.981 37.902 Q 89.011 38 89.011 38.125 L 89.011 38.125 L 89.011 39.535 L 89.011 39.535 Z  M 87.316 35.935 L 88.941 35.935 L 88.941 34.265 L 88.941 34.265 Q 88.941 34.085 89.016 34.025 L 89.016 34.025 L 89.016 34.025 Q 89.091 33.965 89.275 33.965 L 89.275 33.965 L 90.392 33.965 L 90.392 33.965 Q 90.567 33.965 90.637 34.04 L 90.637 34.04 L 90.637 34.04 Q 90.706 34.115 90.706 34.29 L 90.706 34.29 L 90.706 36.11 L 90.706 36.11 Q 90.706 36.29 90.634 36.362 L 90.634 36.362 L 90.634 36.362 Q 90.561 36.435 90.391 36.435 L 90.391 36.435 L 87.066 36.435 L 87.066 36.435 Q 86.956 36.435 86.886 36.39 L 86.886 36.39 L 86.886 36.39 Q 86.816 36.345 86.816 36.22 L 86.816 36.22 L 86.816 35.92 L 86.816 35.92 Q 86.816 35.825 86.891 35.755 L 86.891 35.755 L 86.891 35.755 Q 86.966 35.685 87.066 35.685 L 87.066 35.685 L 87.066 35.685 Q 87.176 35.685 87.246 35.755 L 87.246 35.755 L 87.246 35.755 Q 87.316 35.825 87.316 35.935 L 87.316 35.935 L 87.316 35.935 Z  M 89.441 34.465 L 89.441 35.935 L 90.206 35.935 L 90.206 34.465 L 89.441 34.465 L 89.441 34.465 Z  M 89.011 32.335 L 90.206 32.335 L 90.206 30.615 L 90.206 30.615 Q 90.206 30.505 90.266 30.435 L 90.266 30.435 L 90.266 30.435 Q 90.326 30.365 90.456 30.365 L 90.456 30.365 L 90.456 30.365 Q 90.581 30.365 90.644 30.437 L 90.644 30.437 L 90.644 30.437 Q 90.706 30.51 90.706 30.615 L 90.706 30.615 L 90.706 32.835 L 89.076 32.835 L 89.076 32.835 Q 88.511 32.835 88.511 32.27 L 88.511 32.27 L 88.511 30.865 L 87.316 30.865 L 87.316 32.585 L 87.316 32.585 Q 87.316 32.695 87.256 32.765 L 87.256 32.765 L 87.256 32.765 Q 87.196 32.835 87.066 32.835 L 87.066 32.835 L 87.066 32.835 Q 86.941 32.835 86.879 32.762 L 86.879 32.762 L 86.879 32.762 Q 86.816 32.69 86.816 32.585 L 86.816 32.585 L 86.816 30.925 L 86.816 30.925 Q 86.816 30.79 86.844 30.7 L 86.844 30.7 L 86.844 30.7 Q 86.871 30.61 86.959 30.517 L 86.959 30.517 L 86.959 30.517 Q 87.046 30.425 87.144 30.395 L 87.144 30.395 L 87.144 30.395 Q 87.241 30.365 87.401 30.365 L 87.401 30.365 L 88.426 30.365 L 88.426 30.365 Q 88.581 30.365 88.681 30.395 L 88.681 30.395 L 88.681 30.395 Q 88.781 30.425 88.866 30.515 L 88.866 30.515 L 88.866 30.515 Q 88.951 30.605 88.981 30.702 L 88.981 30.702 L 88.981 30.702 Q 89.011 30.8 89.011 30.925 L 89.011 30.925 L 89.011 32.335 L 89.011 32.335 Z  M 86.816 28.735 L 86.816 27.265 L 86.816 27.265 Q 86.816 27.055 86.961 26.91 L 86.961 26.91 L 86.961 26.91 Q 87.106 26.765 87.316 26.765 L 87.316 26.765 L 90.206 26.765 L 90.206 26.765 Q 90.421 26.765 90.564 26.907 L 90.564 26.907 L 90.564 26.907 Q 90.706 27.05 90.706 27.265 L 90.706 27.265 L 90.706 28.735 L 90.706 28.735 Q 90.706 28.945 90.561 29.09 L 90.561 29.09 L 90.561 29.09 Q 90.416 29.235 90.206 29.235 L 90.206 29.235 L 87.316 29.235 L 87.316 29.235 Q 87.106 29.235 86.961 29.09 L 86.961 29.09 L 86.961 29.09 Q 86.816 28.945 86.816 28.735 L 86.816 28.735 L 86.816 28.735 Z  M 90.206 28.735 L 90.206 27.265 L 87.316 27.265 L 87.316 28.735 L 90.206 28.735 L 90.206 28.735 Z  M 90.456 25.635 L 86.816 25.635 L 86.816 23.415 L 86.816 23.415 Q 86.816 23.305 86.876 23.235 L 86.876 23.235 L 86.876 23.235 Q 86.936 23.165 87.066 23.165 L 87.066 23.165 L 87.066 23.165 Q 87.191 23.165 87.254 23.237 L 87.254 23.237 L 87.254 23.237 Q 87.316 23.31 87.316 23.415 L 87.316 23.415 L 87.316 25.135 L 88.086 25.135 L 88.086 23.905 L 88.086 23.905 Q 88.086 23.795 88.146 23.725 L 88.146 23.725 L 88.146 23.725 Q 88.206 23.655 88.336 23.655 L 88.336 23.655 L 88.336 23.655 Q 88.461 23.655 88.524 23.727 L 88.524 23.727 L 88.524 23.727 Q 88.586 23.8 88.586 23.905 L 88.586 23.905 L 88.586 25.135 L 90.456 25.135 L 90.456 25.135 Q 90.706 25.135 90.706 25.385 L 90.706 25.385 L 90.706 25.385 Q 90.706 25.635 90.456 25.635 L 90.456 25.635 L 90.456 25.635 Z  M 87.316 21.05 L 87.316 21.535 L 87.496 21.535 L 87.496 21.535 Q 87.746 21.535 87.746 21.785 L 87.746 21.785 L 87.746 21.785 Q 87.746 22.035 87.496 22.035 L 87.496 22.035 L 86.816 22.035 L 86.816 19.565 L 87.496 19.565 L 87.496 19.565 Q 87.746 19.565 87.746 19.815 L 87.746 19.815 L 87.746 19.815 Q 87.746 20.065 87.496 20.065 L 87.496 20.065 L 87.316 20.065 L 87.316 20.55 L 90.456 20.55 L 90.456 20.55 Q 90.706 20.55 90.706 20.8 L 90.706 20.8 L 90.706 20.8 Q 90.706 21.05 90.456 21.05 L 90.456 21.05 L 87.316 21.05 L 87.316 21.05 Z  M 89.011 16.465 L 89.011 17.935 L 90.456 17.935 L 90.456 17.935 Q 90.706 17.935 90.706 18.185 L 90.706 18.185 L 90.706 18.185 Q 90.706 18.435 90.456 18.435 L 90.456 18.435 L 87.066 18.435 L 87.066 18.435 Q 86.816 18.435 86.816 18.185 L 86.816 18.185 L 86.816 18.185 Q 86.816 17.935 87.066 17.935 L 87.066 17.935 L 88.511 17.935 L 88.511 16.465 L 87.066 16.465 L 87.066 16.465 Q 86.816 16.465 86.816 16.215 L 86.816 16.215 L 86.816 16.215 Q 86.816 15.965 87.066 15.965 L 87.066 15.965 L 90.456 15.965 L 90.456 15.965 Q 90.706 15.965 90.706 16.215 L 90.706 16.215 L 90.706 16.215 Q 90.706 16.465 90.456 16.465 L 90.456 16.465 L 89.011 16.465 L 89.011 16.465 Z  M 88.596 14.335 L 90.456 14.335 L 90.456 14.335 Q 90.706 14.335 90.706 14.585 L 90.706 14.585 L 90.706 14.585 Q 90.706 14.835 90.456 14.835 L 90.456 14.835 L 86.816 14.835 L 86.816 13.155 L 86.816 13.155 Q 86.816 12.84 87.019 12.602 L 87.019 12.602 L 87.019 12.602 Q 87.221 12.365 87.541 12.365 L 87.541 12.365 L 87.886 12.365 L 87.886 12.365 Q 88.216 12.365 88.406 12.6 L 88.406 12.6 L 88.406 12.6 Q 88.596 12.835 88.596 13.155 L 88.596 13.155 L 88.589 13.615 L 90.195 12.49 L 90.195 12.49 Q 90.256 12.445 90.33 12.405 L 90.33 12.405 L 90.33 12.405 Q 90.404 12.365 90.466 12.365 L 90.466 12.365 L 90.466 12.365 Q 90.568 12.365 90.637 12.437 L 90.637 12.437 L 90.637 12.437 Q 90.706 12.51 90.706 12.62 L 90.706 12.62 L 90.706 12.62 Q 90.706 12.69 90.669 12.742 L 90.669 12.742 L 90.669 12.742 Q 90.631 12.795 90.566 12.84 L 90.566 12.84 L 88.596 14.22 L 88.596 14.335 L 88.596 14.335 Z  M 87.316 14.335 L 88.096 14.335 L 88.096 13.225 L 88.096 13.225 Q 88.096 13.075 88.056 12.97 L 88.056 12.97 L 88.056 12.97 Q 88.016 12.865 87.886 12.865 L 87.886 12.865 L 87.541 12.865 L 87.541 12.865 Q 87.411 12.865 87.364 12.97 L 87.364 12.97 L 87.364 12.97 Q 87.316 13.075 87.316 13.22 L 87.316 13.22 L 87.316 14.335 L 87.316 14.335 Z " fill-rule="evenodd" fill="rgb(255,255,255)"/></g></svg>